# xmcd
# 
# Track frame offsets:
#     182
#     12022
#     21375
#     29250
#     42790
#     54135
#     65690
#     80562
#     91365
#     102570
#     115300
#     129017
#     142347
#     160122
# 
# Disc length: 2310
# 
# Revision: 4
# Processed by: cddbd v1.5.2PL0 Copyright (c) Steve Scherf et al.
# Submitted via: fre:ac v1.0.27
# 
DISCID=b409040e
DTITLE=Various Artist - The Singing Cowboys
DYEAR=0
DGENRE=country
TTITLE0=Gene Autry - Back In The Saddle Again
TTITLE1=Roy Rogers - Candy Kisses
TTITLE2=Tex Ritter - (I Got Spurs That) Jingle, Jangle, Jingle
TTITLE3=Rex Allen - The Last Roundup
TTITLE4=Marty Robbins - Song Of The Bandit
TTITLE5=Slim Whitman - Cattle Call
TTITLE6=Gene Autry - Tumbling Tumbleweeds
TTITLE7=Roy Rogers - Tennessee Waltz
TTITLE8=Jimmy Wakely - Along The Santa Fe Trail
TTITLE9=Tex Ritter - High Noon (Do Not Forsake Me)
TTITLE10=Gene Autry - Mexicali Rose
TTITLE11=Roy Rogers - Green Green Grass Of Home
TTITLE12=Marty Robbins - Big Iron
TTITLE13=Rex Allen - Twilight On The Trail
EXTD=
EXTT0=
EXTT1=
EXTT2=
EXTT3=
EXTT4=
EXTT5=
EXTT6=
EXTT7=
EXTT8=
EXTT9=
EXTT10=
EXTT11=
EXTT12=
EXTT13=
PLAYORDER=
